<svg
        width="134"
        height="23"
        viewBox="0 0 134 23"
        fill="none"
        xmlns="http://www.w3.org/2000/svg"
      >
        <path
          d="M0.536865 5.59029L10.1269 0.0534668L19.717 5.59029V16.6639L10.1269 22.2007L0.536865 16.6639L0.536865 5.59029Z"
          fill="#DEDEDE"
        />
        <path
          d="M10.1003 19.1543C5.65244 19.1543 2.04674 15.5486 2.04674 11.1007C2.04674 6.65286 5.65244 3.04716 10.1003 3.04716C14.5482 3.04716 18.1539 6.65286 18.1539 11.1007C18.1539 15.5486 14.5482 19.1543 10.1003 19.1543Z"
          fill="#9D9D9D"
        />
        <path
          d="M10.1005 16.134C7.32057 16.134 5.06701 13.8804 5.06701 11.1005C5.06701 8.32062 7.32057 6.06706 10.1005 6.06706C12.8804 6.06706 15.134 8.32063 15.134 11.1005C15.134 13.8804 12.8804 16.134 10.1005 16.134Z"
          fill="black"
        />
        <path
          d="M34.26 18.2C33.1267 18.2 32.02 17.9934 30.94 17.58C29.86 17.1534 28.9 16.5534 28.06 15.78L29.72 13.7C30.5334 14.4067 31.3134 14.9267 32.06 15.26C32.82 15.58 33.62 15.74 34.46 15.74C35.0467 15.74 35.5534 15.6734 35.98 15.54C36.4067 15.3934 36.7334 15.1867 36.96 14.92C37.2 14.6534 37.32 14.34 37.32 13.98C37.32 13.5 37.1467 13.1334 36.8 12.88C36.4534 12.6134 35.86 12.4067 35.02 12.26L32.24 11.78C31.0534 11.58 30.1467 11.16 29.52 10.52C28.9067 9.88005 28.6 9.05338 28.6 8.04004C28.6 7.17338 28.82 6.42004 29.26 5.78005C29.7134 5.14004 30.3467 4.65338 31.16 4.32004C31.9867 3.97338 32.9667 3.80004 34.1 3.80004C35.1267 3.80004 36.1467 3.97338 37.16 4.32004C38.1867 4.66671 39.0934 5.14671 39.88 5.76004L38.32 7.92004C36.8534 6.80005 35.38 6.24005 33.9 6.24005C33.38 6.24005 32.9267 6.30671 32.54 6.44004C32.1534 6.57338 31.8534 6.76004 31.64 7.00004C31.44 7.22671 31.34 7.50004 31.34 7.82004C31.34 8.24671 31.4934 8.58004 31.8 8.82004C32.1067 9.04671 32.62 9.22004 33.34 9.34004L35.98 9.78004C37.38 10.0067 38.4267 10.4534 39.12 11.12C39.8134 11.7734 40.16 12.64 40.16 13.72C40.16 14.6267 39.92 15.42 39.44 16.1C38.96 16.7667 38.2734 17.2867 37.38 17.66C36.5 18.02 35.46 18.2 34.26 18.2Z"
          fill="white"
        />
        <path
          d="M41.6972 18V7.58004H44.4372V18H41.6972ZM43.0572 6.34004C42.6306 6.34004 42.2639 6.18671 41.9572 5.88004C41.6506 5.57338 41.4972 5.20671 41.4972 4.78005C41.4972 4.34005 41.6506 3.97338 41.9572 3.68004C42.2639 3.37338 42.6306 3.22004 43.0572 3.22004C43.4972 3.22004 43.8639 3.37338 44.1572 3.68004C44.4639 3.97338 44.6172 4.34005 44.6172 4.78005C44.6172 5.20671 44.4639 5.57338 44.1572 5.88004C43.8639 6.18671 43.4972 6.34004 43.0572 6.34004Z"
          fill="white"
        />
        <path
          d="M51.82 22.28C51.02 22.28 50.2467 22.1934 49.5 22.02C48.7534 21.86 48.08 21.6267 47.48 21.32L48.44 19.2C49.0134 19.48 49.5734 19.6867 50.12 19.82C50.6667 19.9534 51.2134 20.02 51.76 20.02C52.5734 20.02 53.1867 19.8467 53.6 19.5C54.0267 19.1534 54.24 18.6334 54.24 17.94V17.12C53.3867 17.7467 52.4334 18.06 51.38 18.06C50.3934 18.06 49.5 17.8267 48.7 17.36C47.9134 16.88 47.28 16.2334 46.8 15.42C46.3334 14.6067 46.1 13.7067 46.1 12.72C46.1 11.7334 46.3334 10.84 46.8 10.04C47.28 9.24004 47.9267 8.60671 48.74 8.14004C49.5534 7.66004 50.46 7.42004 51.46 7.42004C51.9667 7.42004 52.46 7.49338 52.94 7.64005C53.42 7.78671 53.8667 7.99338 54.28 8.26005V7.58004H56.98V17.98C56.98 19.3534 56.5334 20.4134 55.64 21.16C54.76 21.9067 53.4867 22.28 51.82 22.28ZM51.8 15.74C52.3067 15.74 52.7667 15.66 53.18 15.5C53.5934 15.3267 53.9467 15.0867 54.24 14.78V10.7C53.9467 10.4067 53.5867 10.18 53.16 10.02C52.7467 9.84671 52.3 9.76004 51.82 9.76004C51.2467 9.76004 50.7334 9.89338 50.28 10.16C49.8267 10.4134 49.4667 10.7667 49.2 11.22C48.9334 11.66 48.8 12.16 48.8 12.72C48.8 13.2934 48.9267 13.8067 49.18 14.26C49.4467 14.7134 49.8067 15.0734 50.26 15.34C50.7267 15.6067 51.24 15.74 51.8 15.74Z"
          fill="white"
        />
        <path
          d="M59.1386 18V7.58004H61.8786V8.44004C62.6653 7.73338 63.6386 7.38004 64.7986 7.38004C65.612 7.38004 66.3253 7.56004 66.9386 7.92004C67.5653 8.26671 68.052 8.75338 68.3986 9.38004C68.7453 9.99338 68.9186 10.7134 68.9186 11.54V18H66.1786V11.94C66.1786 11.26 65.9853 10.7267 65.5986 10.34C65.212 9.94004 64.6853 9.74004 64.0186 9.74004C63.552 9.74004 63.1386 9.83338 62.7786 10.02C62.4186 10.1934 62.1186 10.4467 61.8786 10.78V18H59.1386Z"
          fill="white"
        />
        <path
          d="M74.3141 18.18C73.5674 18.18 72.9074 18.0467 72.3341 17.78C71.7608 17.5 71.3141 17.12 70.9941 16.64C70.6741 16.16 70.5141 15.6067 70.5141 14.98C70.5141 13.98 70.8874 13.2067 71.6341 12.66C72.3941 12.1 73.4341 11.82 74.7541 11.82C75.6608 11.82 76.5141 11.96 77.3141 12.24V11.48C77.3141 10.88 77.1274 10.4267 76.7541 10.12C76.3808 9.81338 75.8341 9.66004 75.1141 9.66004C74.6741 9.66004 74.2008 9.73338 73.6941 9.88004C73.1874 10.0134 72.6008 10.2267 71.9341 10.52L70.9341 8.50004C71.7608 8.12671 72.5474 7.84671 73.2941 7.66004C74.0541 7.47338 74.8141 7.38004 75.5741 7.38004C76.9741 7.38004 78.0608 7.72004 78.8341 8.40004C79.6208 9.06671 80.0141 10.0134 80.0141 11.24V18H77.3141V17.26C76.8874 17.58 76.4274 17.8134 75.9341 17.96C75.4408 18.1067 74.9008 18.18 74.3141 18.18ZM73.1141 14.92C73.1141 15.32 73.2874 15.64 73.6341 15.88C73.9808 16.1067 74.4408 16.22 75.0141 16.22C75.4674 16.22 75.8874 16.1667 76.2741 16.06C76.6608 15.94 77.0074 15.7667 77.3141 15.54V14.02C76.9808 13.8867 76.6341 13.7867 76.2741 13.72C75.9141 13.6534 75.5274 13.62 75.1141 13.62C74.4874 13.62 73.9941 13.74 73.6341 13.98C73.2874 14.2067 73.1141 14.52 73.1141 14.92Z"
          fill="white"
        />
        <path
          d="M82.0879 18V4.00004L84.8279 3.54004V18H82.0879Z"
          fill="white"
        />
        <path
          d="M88.5907 18V9.24004H86.2307V7.98004H88.5907V6.08004C88.5907 5.09338 88.8573 4.34004 89.3907 3.82004C89.924 3.30004 90.6907 3.04004 91.6907 3.04004C91.9573 3.04004 92.1973 3.05338 92.4107 3.08004C92.624 3.10671 92.8307 3.15338 93.0307 3.22004V4.54004C92.804 4.47338 92.5973 4.42671 92.4107 4.40004C92.224 4.36004 92.0173 4.34004 91.7907 4.34004C91.204 4.34004 90.764 4.48671 90.4707 4.78005C90.1907 5.06004 90.0507 5.50671 90.0507 6.12004V7.98004H93.0307V9.24004H90.0507V18H88.5907Z"
          fill="white"
        />
        <path
          d="M98.7833 18.2C97.8367 18.2 96.97 17.9734 96.1833 17.52C95.41 17.0534 94.7967 16.4267 94.3433 15.64C93.89 14.8534 93.6633 13.9734 93.6633 13C93.6633 12.0267 93.89 11.1467 94.3433 10.36C94.7967 9.57338 95.41 8.95338 96.1833 8.50004C96.97 8.03338 97.8367 7.80004 98.7833 7.80004C99.7433 7.80004 100.61 8.03338 101.383 8.50004C102.157 8.95338 102.77 9.57338 103.223 10.36C103.677 11.1467 103.903 12.0267 103.903 13C103.903 13.9734 103.677 14.8534 103.223 15.64C102.77 16.4267 102.157 17.0534 101.383 17.52C100.61 17.9734 99.7433 18.2 98.7833 18.2ZM98.7833 16.88C99.4633 16.88 100.077 16.7067 100.623 16.36C101.183 16.0134 101.623 15.5467 101.943 14.96C102.277 14.3734 102.443 13.72 102.443 13C102.443 12.2667 102.277 11.6134 101.943 11.04C101.623 10.4534 101.183 9.98671 100.623 9.64005C100.077 9.29338 99.4633 9.12004 98.7833 9.12004C98.1033 9.12004 97.4833 9.29338 96.9233 9.64005C96.3767 9.98671 95.9367 10.4534 95.6033 11.04C95.2833 11.6134 95.1233 12.2667 95.1233 13C95.1233 13.72 95.2833 14.3734 95.6033 14.96C95.9367 15.5467 96.3767 16.0134 96.9233 16.36C97.4833 16.7067 98.1033 16.88 98.7833 16.88Z"
          fill="white"
        />
        <path
          d="M105.959 18V7.98004H107.439V9.40005C107.746 8.88005 108.133 8.48004 108.599 8.20004C109.079 7.90671 109.626 7.76004 110.239 7.76004C110.586 7.76004 110.899 7.80671 111.179 7.90005V9.26005C111.006 9.19338 110.833 9.14671 110.659 9.12004C110.486 9.09338 110.313 9.08004 110.139 9.08004C109.526 9.08004 108.986 9.26004 108.519 9.62004C108.066 9.96671 107.706 10.4734 107.439 11.14V18H105.959Z"
          fill="white"
        />
        <path
          d="M117.05 22.28C116.357 22.28 115.67 22.1867 114.99 22C114.31 21.8267 113.69 21.5734 113.13 21.24L113.77 20.08C114.37 20.4 114.924 20.6334 115.43 20.78C115.95 20.9267 116.47 21 116.99 21C117.937 21 118.657 20.7734 119.15 20.32C119.644 19.8667 119.89 19.2 119.89 18.32V16.92C118.97 17.6934 117.91 18.08 116.71 18.08C115.79 18.08 114.95 17.8534 114.19 17.4C113.43 16.9467 112.824 16.3334 112.37 15.56C111.93 14.7734 111.71 13.9 111.71 12.94C111.71 11.98 111.93 11.1134 112.37 10.34C112.824 9.55338 113.43 8.93338 114.19 8.48005C114.95 8.02671 115.804 7.80004 116.75 7.80004C117.324 7.80004 117.877 7.90004 118.41 8.10004C118.957 8.30004 119.457 8.59338 119.91 8.98004V7.98004H121.37V18.3C121.37 19.58 120.997 20.56 120.25 21.24C119.504 21.9334 118.437 22.28 117.05 22.28ZM116.83 16.78C117.47 16.78 118.057 16.66 118.59 16.42C119.124 16.18 119.557 15.84 119.89 15.4V10.48C119.557 10.0534 119.117 9.72004 118.57 9.48004C118.037 9.24004 117.457 9.12004 116.83 9.12004C116.137 9.12004 115.51 9.28671 114.95 9.62004C114.404 9.95338 113.97 10.4134 113.65 11C113.33 11.5734 113.17 12.22 113.17 12.94C113.17 13.66 113.33 14.3134 113.65 14.9C113.984 15.4734 114.424 15.9334 114.97 16.28C115.53 16.6134 116.15 16.78 116.83 16.78Z"
          fill="white"
        />
        <path
          d="M128.589 18.18C127.629 18.18 126.756 17.9534 125.969 17.5C125.196 17.0334 124.576 16.4067 124.109 15.62C123.656 14.8334 123.429 13.9534 123.429 12.98C123.429 12.02 123.649 11.1534 124.089 10.38C124.529 9.59338 125.122 8.97338 125.869 8.52004C126.616 8.05338 127.449 7.82004 128.369 7.82004C129.262 7.82004 130.062 8.05338 130.769 8.52004C131.489 8.97338 132.056 9.59338 132.469 10.38C132.896 11.1534 133.109 12.02 133.109 12.98V13.44H124.889C124.969 14.0934 125.176 14.68 125.509 15.2C125.856 15.72 126.302 16.1334 126.849 16.44C127.396 16.7334 127.996 16.88 128.649 16.88C129.169 16.88 129.676 16.8 130.169 16.64C130.662 16.48 131.076 16.2534 131.409 15.96L132.329 16.94C131.769 17.3534 131.182 17.6667 130.569 17.88C129.969 18.08 129.309 18.18 128.589 18.18ZM124.929 12.26H131.629C131.549 11.66 131.349 11.1267 131.029 10.66C130.722 10.18 130.336 9.80671 129.869 9.54004C129.402 9.26004 128.889 9.12004 128.329 9.12004C127.756 9.12004 127.229 9.25338 126.749 9.52004C126.269 9.78671 125.869 10.16 125.549 10.64C125.229 11.1067 125.022 11.6467 124.929 12.26Z"
          fill="white"
        />
      </svg>